<?xml version="1.0" standalone="no"?>
<!DOCTYPE svg PUBLIC "-//W3C//DTD SVG 20010904//EN"
 "http://www.w3.org/TR/2001/REC-SVG-20010904/DTD/svg10.dtd">
<svg version="1.0" xmlns="http://www.w3.org/2000/svg"
 width="370.000000pt" height="370.000000pt" viewBox="0 0 370.000000 370.000000"
 preserveAspectRatio="xMidYMid meet">
<metadata>
Created by potrace 1.11, written by Peter Selinger 2001-2013
</metadata>
<g transform="translate(0.000000,370.000000) scale(0.100000,-0.100000)"
fill="#000000" stroke="none">
<path d="M0 3175 l0 -525 1850 0 1850 0 0 525 0 525 -1850 0 -1850 0 0 -525z
m829 234 c32 -19 32 -21 16 -39 -16 -18 -20 -18 -47 -4 -16 8 -41 14 -56 12
-23 -2 -27 -8 -27 -33 0 -26 5 -31 50 -48 70 -26 90 -47 88 -99 -3 -58 -28
-80 -97 -86 -58 -5 -116 11 -116 32 1 30 17 39 48 27 16 -7 45 -11 63 -9 30 3
34 6 34 32 0 31 -4 34 -78 65 -73 31 -86 93 -32 147 32 31 105 33 154 3z m271
-4 c0 -24 -2 -25 -65 -25 l-65 0 0 -40 0 -40 55 0 c52 0 55 -1 55 -25 0 -24
-3 -25 -55 -25 l-55 0 0 -45 0 -45 65 0 c63 0 65 -1 65 -25 0 -25 0 -25 -95
-25 l-95 0 0 160 0 160 95 0 c95 0 95 0 95 -25z m227 5 c89 -57 29 -190 -86
-190 -29 0 -30 -2 -33 -52 -3 -49 -5 -53 -30 -56 l-28 -3 0 162 0 162 78 -5
c42 -2 87 -11 99 -18z m293 -5 c0 -23 -4 -25 -45 -25 l-45 0 0 -135 0 -135
-30 0 -30 0 0 135 0 135 -45 0 c-41 0 -45 2 -45 25 l0 25 120 0 120 0 0 -25z
m230 0 c0 -24 -2 -25 -65 -25 l-65 0 0 -40 0 -40 55 0 c52 0 55 -1 55 -25 0
-24 -3 -25 -55 -25 l-55 0 0 -45 0 -45 70 0 c68 0 70 -1 70 -25 l0 -25 -100 0
-100 0 0 160 0 160 95 0 c95 0 95 0 95 -25z m167 -75 c21 -55 40 -100 43 -100
3 0 21 44 41 98 35 92 38 97 68 100 19 2 33 -2 35 -10 3 -7 7 -80 11 -161 l6
-148 -28 3 c-28 3 -28 4 -31 78 -4 131 -9 136 -46 45 -27 -68 -36 -80 -57 -83
-23 -3 -28 4 -60 85 l-34 88 -3 -85 c-3 -116 -7 -130 -38 -130 l-25 0 6 148
c4 81 8 153 11 160 2 6 17 12 33 12 28 0 31 -4 68 -100z m422 89 c51 -18 69
-81 33 -117 -17 -17 -17 -19 4 -35 29 -21 38 -61 22 -95 -19 -40 -72 -62 -150
-62 l-68 0 0 160 0 160 64 0 c34 0 77 -5 95 -11z m301 -14 c0 -23 -4 -24 -62
-27 l-63 -3 -3 -37 -3 -38 60 0 c58 0 61 -1 61 -25 0 -22 -4 -24 -57 -27 l-58
-3 0 -40 0 -40 68 -3 c64 -3 68 -4 65 -25 -3 -21 -9 -22 -95 -25 l-93 -3 0
161 0 160 90 0 c89 0 90 0 90 -25z m212 15 c21 -6 42 -19 48 -30 16 -30 12
-86 -9 -111 -18 -22 -18 -24 10 -86 36 -77 36 -83 2 -83 -24 0 -31 8 -52 56
-25 57 -55 82 -85 71 -12 -5 -16 -21 -16 -67 0 -57 -1 -60 -25 -60 l-25 0 0
160 0 160 58 0 c31 0 74 -5 94 -10z m-2457 -60 c21 -40 18 -117 -5 -160 l-19
-35 -22 49 c-18 42 -20 57 -13 95 6 29 14 45 22 43 8 -1 11 2 7 8 -6 9 1 30
10 30 3 0 11 -13 20 -30z m3050 -44 c7 -36 -7 -101 -28 -130 -13 -17 -15 -16
-30 17 -22 45 -22 119 -1 159 l17 32 18 -23 c10 -12 21 -37 24 -55z"/>
<path d="M1210 3325 l0 -55 33 0 c38 0 67 25 67 58 0 31 -27 52 -66 52 l-34 0
0 -55z"/>
<path d="M2340 3340 l0 -41 36 3 c43 4 65 29 48 56 -6 10 -26 18 -48 20 l-36
3 0 -41z"/>
<path d="M2340 3210 l0 -50 38 0 c45 0 62 14 62 52 0 31 -28 48 -76 48 -22 0
-24 -4 -24 -50z"/>
<path d="M2850 3330 c0 -49 1 -50 31 -50 48 0 69 16 69 54 0 38 -12 46 -66 46
l-34 0 0 -50z"/>
<path d="M3486 3333 c-6 -14 -5 -15 5 -6 7 7 10 15 7 18 -3 3 -9 -2 -12 -12z"/>
<path d="M1825 2010 c-85 -9 -183 -41 -250 -82 -53 -32 -175 -145 -175 -163 0
-6 38 -48 84 -94 l84 -84 49 43 c135 120 335 144 432 52 75 -72 80 -183 13
-250 -49 -49 -97 -62 -221 -62 l-101 0 0 -139 0 -139 128 -4 c113 -3 132 -6
172 -28 65 -36 93 -94 87 -178 -6 -80 -38 -131 -101 -161 -124 -60 -298 -23
-418 90 l-49 46 -87 -89 c-48 -49 -89 -93 -90 -99 -9 -25 108 -130 199 -179
128 -68 339 -92 493 -56 238 56 383 246 362 474 -13 147 -118 276 -260 322
l-40 13 52 19 c67 25 154 105 186 171 75 153 43 341 -76 453 -104 97 -282 144
-473 124z"/>
</g>
</svg>
