<svg xmlns="http://www.w3.org/2000/svg" viewBox="0 0 51.98 41.5"><defs><style>.cls-1{fill:#7f31a3;}</style></defs><title>2Asset 3</title><g id="Layer_2" data-name="Layer 2"><g id="Layer_2-2" data-name="Layer 2"><path class="cls-1" d="M24.36,40.61a1.63,1.63,0,0,1,.17-.73l4.23-8.46-8.55-5.7a1.62,1.62,0,0,1,0-2.7l7.72-5.15-7.72-5.15A1.62,1.62,0,0,1,20,10.23l4.41-4.51V2.93A16.79,16.79,0,0,0,15,0C6.6,0,0,6.22,0,14.15,0,25.06,19.69,38.47,24.36,41.5Z"/><path class="cls-1" d="M37,0a16.79,16.79,0,0,0-9.34,2.93V6.39a1.62,1.62,0,0,1-.46,1.14l-3.5,3.58,8.12,5.41a1.62,1.62,0,0,1,0,2.7L24,24.36l7.72,5.15a1.63,1.63,0,0,1,.55,2.08L27.61,41v.51C37,35.56,52,23.63,52,14.15,52,6.22,45.38,0,37,0Z"/></g></g></svg>