<svg xmlns="http://www.w3.org/2000/svg" viewBox="0 0 267.5 180"><defs><style>.cls-1{fill:#ffce00;}</style></defs><title>Asset 1</title><g id="Layer_2" data-name="Layer 2"><g id="Capa_1" data-name="Capa 1"><path class="cls-1" d="M257,56.59a7.48,7.48,0,0,1-.2,2.23l-16.5,66A7.5,7.5,0,0,1,233,130.5l-99,.5H35a7.5,7.5,0,0,1-7.28-5.69L11.22,59.06a7.49,7.49,0,0,1-.2-2.29,15.76,15.76,0,1,1,14.72-2.86L46.41,74.72a28,28,0,0,0,42.26-2.86l33.95-45a15.76,15.76,0,1,1,22.51-.27l0,0,33.7,45.11A28.13,28.13,0,0,0,201.29,83a27.82,27.82,0,0,0,19.8-8.2L241.88,54A15.75,15.75,0,1,1,257,56.59ZM238.67,154.5a7.5,7.5,0,0,0-7.5-7.5h-194a7.5,7.5,0,0,0-7.5,7.5v18a7.5,7.5,0,0,0,7.5,7.5h194a7.5,7.5,0,0,0,7.5-7.5Z"/></g></g></svg>