<?xml version="1.0" encoding="utf-8"?>
<!-- Generator: Adobe Illustrator 21.0.2, SVG Export Plug-In . SVG Version: 6.00 Build 0)  -->
<svg version="1.1" id="Layer_1" xmlns="http://www.w3.org/2000/svg" xmlns:xlink="http://www.w3.org/1999/xlink" x="0px" y="0px"
	 viewBox="0 0 878.7 595.3" style="enable-background:new 0 0 878.7 595.3;" xml:space="preserve">
<style type="text/css">
	.st0{fill:#FFFFFF;}
</style>
<g>
	<path class="st0" d="M149,383.2l-11.7-0.3l3.1-183l5.7-6h50.2l6.3,6.3v183h-11.7V205.4h-39.3L149,383.2z"/>
	<path class="st0" d="M245.6,382.9l-9.7-3.1V194.3h11.4v165.3C278.6,303.7,310,248.1,341,192l10.5,3.1l1.7,188.1h-11.4l-1.7-167.9
		L245.6,382.9z"/>
	<path class="st0" d="M448.5,380.9l-10.3,4.8l-39.6-109.7l2.6,107.2h-11.4l-2.9-188.7l11.1-0.3l0.6,60.7l27.6-63.6l9.4,5.1
		l-29.9,66.1L448.5,380.9z"/>
	<path class="st0" d="M555.1,194.3v189h-11.4v-90.6c-11.7,7.7-33.9,15.7-53,15.7c-24.2,0-37-11.7-38.5-54.4l-1.4-59.6H463l0.9,61.8
		c0,33.6,10.3,39.9,29.6,39.9c16.8,0,38.8-9.1,50.4-16.5v-85.2H555.1z"/>
	<path class="st0" d="M604.4,371.5h46.7v11.7h-52.7l-5.7-5.7l-4-177.8l5.1-5.4h50.7v10.5h-45l1.7,55.3l41.6-0.9l0.3,10.8l-41.6,1.1
		L604.4,371.5z"/>
	<path class="st0" d="M679.9,383.5h-12l1.1-180.4l7.4-8.8h5.7c52.7,0,75,26.2,74.4,65.3c-0.9,47.3-37.3,61-76.7,61.8V383.5z
		 M680.8,205.7l-0.9,103.7h3.1c31.9,0,61.8-14,61.8-48.5C744.9,233.9,736.6,206.5,680.8,205.7z"/>
</g>
</svg>
